<?xml version="1.0" encoding="utf-8"?>
<!-- Generator: Adobe Illustrator 17.0.0, SVG Export Plug-In . SVG Version: 6.00 Build 0)  -->
<!DOCTYPE svg PUBLIC "-//W3C//DTD SVG 1.1//EN" "http://www.w3.org/Graphics/SVG/1.1/DTD/svg11.dtd">
<svg version="1.1" id="Layer_1" xmlns="http://www.w3.org/2000/svg" xmlns:xlink="http://www.w3.org/1999/xlink" x="0px" y="0px"
	 width="20px" height="21.882px" viewBox="0 0 20 21.882" enable-background="new 0 0 20 21.882" xml:space="preserve">
<path fill="#FFFFFF" d="M13.941,11.546c1.755-1.161,2.885-3.132,2.885-5.251C16.826,2.824,14.031,0,10.561,0
	C7.089,0,4.28,2.824,4.28,6.295c0,2.12,0.607,4.09,2.362,5.251C2.928,12.974,0,16.532,0,20.546v1.335h2v-1.335
	c0-4.37,3.631-7.932,8-7.94c4.37,0.007,8,3.569,8,7.94v1.335h2v-1.335C20,16.532,17.655,12.974,13.941,11.546z M15.179,6.295
	c-0.004,2.526-2.063,4.585-4.589,4.59C8.064,10.88,6.005,8.821,6,6.296c0.005-2.526,2.065-4.585,4.591-4.59
	C13.116,1.71,15.175,3.769,15.179,6.295z"/>
</svg>
