<?xml version="1.0" encoding="utf-8"?>
<!-- Generator: Adobe Illustrator 17.0.0, SVG Export Plug-In . SVG Version: 6.00 Build 0)  -->
<!DOCTYPE svg PUBLIC "-//W3C//DTD SVG 1.1//EN" "http://www.w3.org/Graphics/SVG/1.1/DTD/svg11.dtd">
<svg version="1.1" id="Layer_1" xmlns="http://www.w3.org/2000/svg" xmlns:xlink="http://www.w3.org/1999/xlink" x="0px" y="0px"
	 width="22.265px" height="22.265px" viewBox="0 0 22.265 22.265" enable-background="new 0 0 22.265 22.265" xml:space="preserve">
<g>
	<circle fill="#FACF33" cx="11.133" cy="11.133" r="11.133"/>
	<g>
		<path fill="#FFFCFF" d="M15.907,13.025l0.017,0.051c-0.056,1.442-0.484,2.543-1.28,3.303c-0.797,0.76-1.952,1.141-3.468,1.141
			c-1.521,0-2.757-0.467-3.71-1.402c-0.951-0.935-1.427-2.149-1.427-3.641V9.907c0-1.487,0.458-2.7,1.373-3.637
			c0.915-0.938,2.106-1.407,3.569-1.407c1.555,0,2.744,0.391,3.567,1.174c0.821,0.783,1.287,1.895,1.393,3.337l-0.017,0.051h-2.78
			c-0.039-0.8-0.217-1.394-0.536-1.783c-0.318-0.389-0.86-0.583-1.627-0.583c-0.647,0-1.157,0.261-1.529,0.782
			C9.081,8.362,8.895,9.045,8.895,9.89v2.585c0,0.851,0.203,1.538,0.608,2.061c0.406,0.524,0.963,0.786,1.673,0.786
			c0.688,0,1.175-0.183,1.461-0.549c0.289-0.366,0.451-0.949,0.491-1.749H15.907z"/>
	</g>
</g>
</svg>
