<?xml version="1.0" encoding="utf-8"?>
<!-- Generator: Adobe Illustrator 17.0.0, SVG Export Plug-In . SVG Version: 6.00 Build 0)  -->
<!DOCTYPE svg PUBLIC "-//W3C//DTD SVG 1.1//EN" "http://www.w3.org/Graphics/SVG/1.1/DTD/svg11.dtd">
<svg version="1.1" id="Layer_1" xmlns="http://www.w3.org/2000/svg" xmlns:xlink="http://www.w3.org/1999/xlink" x="0px" y="0px"
	 width="37px" height="23px" viewBox="0 0 37 23" enable-background="new 0 0 37 23" xml:space="preserve">
<g>
	<rect fill="#E6C43B" width="37" height="23"/>
	<g>
		<path fill="#FFFFFF" d="M17.936,14.797v1.378H7.106v-1.378h3.821v-4.121h1.717v4.121H17.936z M14.698,13.354
			c0.455-2.262,0.481-3.926,0.481-5.316H8.198V6.672h8.697v1.144c0,1.495,0,3.186-0.481,5.733L14.698,13.354z"/>
		<path fill="#FFFFFF" d="M29.896,11.119v1.403H19.066v-1.403H29.896z M28.596,15.421c0,1.405-1.573,2.198-4.16,2.198
			c-2.588,0-4.147-0.793-4.147-2.198c0-1.417,1.56-2.21,4.147-2.21C27.022,13.211,28.596,14.004,28.596,15.421z M28.66,10.287
			h-8.281V5.97h8.217v1.365h-6.514v1.599h6.578V10.287z M26.854,15.421c0-0.624-0.819-0.91-2.418-0.91
			c-1.6,0-2.418,0.286-2.418,0.91c0,0.624,0.818,0.897,2.418,0.897C26.034,16.318,26.854,16.045,26.854,15.421z"/>
	</g>
</g>
</svg>
