<?xml version="1.0" encoding="utf-8"?>
<!-- Generator: Adobe Illustrator 17.0.0, SVG Export Plug-In . SVG Version: 6.00 Build 0)  -->
<!DOCTYPE svg PUBLIC "-//W3C//DTD SVG 1.1//EN" "http://www.w3.org/Graphics/SVG/1.1/DTD/svg11.dtd">
<svg version="1.1" id="Layer_1" xmlns="http://www.w3.org/2000/svg" xmlns:xlink="http://www.w3.org/1999/xlink" x="0px" y="0px"
	 width="37px" height="23px" viewBox="0 0 37 23" enable-background="new 0 0 37 23" xml:space="preserve">
<g>
	<rect fill="#54B3D6" width="37" height="23"/>
	<g>
		<path fill="#FFFFFF" d="M18.441,14.863v1.391H7.599v-1.391h4.563v-2.314h1.716v2.314H18.441z M7.95,11.612
			c2.73-0.324,4.043-1.664,4.186-2.977H8.535V7.27h3.627V5.801h1.716V7.27h3.627v1.365h-3.601c0.143,1.312,1.456,2.652,4.186,2.977
			l-0.611,1.353c-2.145-0.286-3.666-1.17-4.459-2.392c-0.793,1.222-2.314,2.105-4.459,2.392L7.95,11.612z"/>
		<path fill="#FFFFFF" d="M30.401,11.119v1.403H19.572v-1.403H30.401z M29.102,15.421c0,1.405-1.573,2.198-4.16,2.198
			c-2.587,0-4.147-0.793-4.147-2.198c0-1.417,1.56-2.21,4.147-2.21C27.528,13.211,29.102,14.004,29.102,15.421z M29.167,10.287
			h-8.281V5.97h8.216v1.365h-6.514v1.599h6.579V10.287z M27.359,15.421c0-0.624-0.819-0.91-2.418-0.91
			c-1.599,0-2.418,0.286-2.418,0.91c0,0.624,0.819,0.897,2.418,0.897C26.54,16.318,27.359,16.045,27.359,15.421z"/>
	</g>
</g>
</svg>
