<?xml version="1.0" encoding="utf-8"?>
<!-- Generator: Adobe Illustrator 17.0.0, SVG Export Plug-In . SVG Version: 6.00 Build 0)  -->
<!DOCTYPE svg PUBLIC "-//W3C//DTD SVG 1.1//EN" "http://www.w3.org/Graphics/SVG/1.1/DTD/svg11.dtd">
<svg version="1.1" id="Layer_1" xmlns="http://www.w3.org/2000/svg" xmlns:xlink="http://www.w3.org/1999/xlink" x="0px" y="0px"
	 width="37px" height="23px" viewBox="0 0 37 23" enable-background="new 0 0 37 23" xml:space="preserve">
<g>
	<rect fill="#955ED9" width="37" height="23"/>
	<g>
		<path fill="#FFFFFF" d="M13.865,12.444v0.885c2.054,0.169,3.276,0.91,3.276,2.132c0,1.377-1.573,2.17-4.16,2.17
			c-2.587,0-4.147-0.793-4.147-2.17c0-1.235,1.235-1.976,3.315-2.146v-0.871h-4.55V11.08h10.816v1.364H13.865z M8.067,9.286
			C10.29,9.09,11.46,8.31,11.759,7.504H8.587V6.139h8.854v1.365h-3.185c0.299,0.806,1.469,1.586,3.705,1.781l-0.598,1.325
			c-2.249-0.194-3.718-1.04-4.355-2.171c-0.637,1.131-2.106,1.977-4.368,2.171L8.067,9.286z M12.981,14.589
			c-1.599,0-2.418,0.26-2.418,0.871c0,0.598,0.819,0.858,2.418,0.858c1.599,0,2.418-0.26,2.418-0.858
			C15.399,14.849,14.58,14.589,12.981,14.589z"/>
		<path fill="#FFFFFF" d="M30.401,11.119v1.403H19.572v-1.403H30.401z M29.102,15.421c0,1.405-1.573,2.198-4.16,2.198
			c-2.587,0-4.147-0.793-4.147-2.198c0-1.417,1.56-2.21,4.147-2.21C27.528,13.211,29.102,14.004,29.102,15.421z M29.167,10.287
			h-8.281V5.97h8.216v1.365h-6.514v1.599h6.579V10.287z M27.359,15.421c0-0.624-0.819-0.91-2.418-0.91
			c-1.599,0-2.418,0.286-2.418,0.91c0,0.624,0.819,0.897,2.418,0.897C26.54,16.318,27.359,16.045,27.359,15.421z"/>
	</g>
</g>
</svg>
