<?xml version="1.0" encoding="utf-8"?>
<!-- Generator: Adobe Illustrator 17.0.0, SVG Export Plug-In . SVG Version: 6.00 Build 0)  -->
<!DOCTYPE svg PUBLIC "-//W3C//DTD SVG 1.1//EN" "http://www.w3.org/Graphics/SVG/1.1/DTD/svg11.dtd">
<svg version="1.1" id="Layer_1" xmlns="http://www.w3.org/2000/svg" xmlns:xlink="http://www.w3.org/1999/xlink" x="0px" y="0px"
	 width="18.035px" height="18.035px" viewBox="0 0 18.035 18.035" enable-background="new 0 0 18.035 18.035" xml:space="preserve">
<g>
	<circle fill="#FFD300" cx="9.017" cy="9.018" r="9.017"/>
	<g>
		<path fill="#FFFDFF" d="M12.885,10.55l0.014,0.041c-0.045,1.168-0.392,2.06-1.037,2.676c-0.645,0.616-1.581,0.924-2.809,0.924
			c-1.232,0-2.233-0.378-3.005-1.136c-0.771-0.758-1.156-1.74-1.156-2.95v-2.08c0-1.204,0.371-2.187,1.112-2.946
			c0.741-0.76,1.706-1.14,2.891-1.14c1.259,0,2.223,0.317,2.889,0.951c0.665,0.634,1.042,1.535,1.129,2.703l-0.014,0.041h-2.252
			c-0.032-0.648-0.176-1.129-0.434-1.444C9.955,5.876,9.516,5.719,8.894,5.719c-0.524,0-0.937,0.211-1.238,0.633
			C7.355,6.774,7.205,7.327,7.205,8.011v2.094c0,0.689,0.164,1.246,0.493,1.67c0.328,0.424,0.78,0.636,1.355,0.636
			c0.557,0,0.952-0.148,1.183-0.445c0.234-0.296,0.365-0.769,0.398-1.417H12.885z"/>
	</g>
</g>
</svg>
