<?xml version="1.0" encoding="utf-8"?>
<!-- Generator: Adobe Illustrator 17.0.0, SVG Export Plug-In . SVG Version: 6.00 Build 0)  -->
<!DOCTYPE svg PUBLIC "-//W3C//DTD SVG 1.1//EN" "http://www.w3.org/Graphics/SVG/1.1/DTD/svg11.dtd">
<svg version="1.1" id="Layer_1" xmlns="http://www.w3.org/2000/svg" xmlns:xlink="http://www.w3.org/1999/xlink" x="0px" y="0px"
	 width="148.929px" height="26.92px" viewBox="0 0 148.929 26.92" enable-background="new 0 0 148.929 26.92" xml:space="preserve">
<g>
	<g>
		<path fill="#FFFFFF" d="M51.932,6.94h-5.126v2.771h4.84v3.652h-4.84v2.86h5.126v3.652h-9.438V3.288h9.438V6.94z"/>
		<path fill="#FFFFFF" d="M63.372,1.617h4.004v18.26h-4.004v-1.254c-0.851,1.07-2.002,1.606-3.454,1.606
			c-0.822,0-1.577-0.155-2.266-0.462c-0.69-0.308-1.291-0.734-1.804-1.276s-0.913-1.181-1.199-1.914
			c-0.286-0.734-0.429-1.525-0.429-2.376c0-0.807,0.135-1.573,0.407-2.299c0.271-0.726,0.656-1.36,1.155-1.904
			c0.498-0.541,1.096-0.971,1.793-1.287c0.696-0.315,1.463-0.473,2.299-0.473c1.408,0,2.574,0.492,3.498,1.474V1.617z M58.356,14.2
			c0,0.367,0.066,0.708,0.198,1.023c0.132,0.316,0.312,0.591,0.539,0.825c0.227,0.235,0.498,0.419,0.814,0.55
			c0.315,0.132,0.656,0.199,1.023,0.199c0.352,0,0.685-0.067,1.001-0.199c0.315-0.131,0.587-0.315,0.814-0.55
			c0.227-0.234,0.41-0.506,0.55-0.813c0.14-0.308,0.209-0.638,0.209-0.99s-0.069-0.685-0.209-1.001
			c-0.14-0.315-0.323-0.59-0.55-0.825c-0.227-0.234-0.498-0.418-0.814-0.55c-0.316-0.132-0.649-0.198-1.001-0.198
			s-0.686,0.066-1.001,0.198c-0.315,0.132-0.587,0.316-0.814,0.55c-0.228,0.235-0.411,0.503-0.55,0.804
			C58.426,13.522,58.356,13.848,58.356,14.2z"/>
		<path fill="#FFFFFF" d="M74.063,8.59v6.357c0,1.394,0.675,2.09,2.024,2.09c1.349,0,2.024-0.696,2.024-2.09V8.59h3.982v7.127
			c0,1.525-0.503,2.669-1.507,3.432c-1.005,0.763-2.505,1.144-4.499,1.144c-1.995,0-3.495-0.381-4.499-1.144
			s-1.507-1.907-1.507-3.432V8.59H74.063z"/>
		<path fill="#FFFFFF" d="M88.781,25.508H84.8V8.59h3.982v1.254c0.851-1.07,2.009-1.606,3.476-1.606
			c0.806,0,1.558,0.158,2.255,0.473c0.697,0.316,1.301,0.746,1.815,1.287c0.513,0.544,0.913,1.182,1.199,1.914
			c0.286,0.734,0.429,1.518,0.429,2.355c0,0.836-0.143,1.613-0.429,2.331c-0.286,0.72-0.682,1.35-1.188,1.893
			c-0.506,0.542-1.104,0.968-1.793,1.276c-0.69,0.307-1.438,0.462-2.244,0.462c-1.408,0-2.582-0.484-3.52-1.452V25.508z
			 M93.797,14.267c0-0.352-0.062-0.685-0.187-1.001c-0.125-0.316-0.305-0.591-0.539-0.825s-0.51-0.422-0.825-0.561
			c-0.315-0.14-0.656-0.209-1.023-0.209c-0.352,0-0.682,0.066-0.99,0.198c-0.308,0.132-0.576,0.316-0.803,0.55
			c-0.228,0.235-0.411,0.51-0.55,0.825c-0.14,0.316-0.209,0.649-0.209,1.001s0.066,0.682,0.198,0.99
			c0.132,0.307,0.315,0.576,0.55,0.802c0.235,0.228,0.51,0.411,0.825,0.55c0.315,0.14,0.649,0.209,1.001,0.209
			c0.352,0,0.682-0.067,0.99-0.199c0.308-0.131,0.575-0.315,0.803-0.55c0.227-0.234,0.41-0.506,0.55-0.813
			C93.728,14.926,93.797,14.604,93.797,14.267z"/>
		<path fill="#FFFFFF" d="M104.203,1.617v18.26h-3.982V1.617H104.203z"/>
		<path fill="#FFFFFF" d="M115.643,8.59h4.004v11.286h-4.004v-1.254c-0.851,1.07-2.002,1.606-3.454,1.606
			c-0.822,0-1.577-0.15-2.266-0.451c-0.69-0.301-1.291-0.722-1.804-1.265c-0.513-0.542-0.913-1.181-1.199-1.914
			c-0.286-0.733-0.429-1.532-0.429-2.398c0-0.807,0.14-1.573,0.418-2.299c0.278-0.726,0.667-1.36,1.166-1.904
			c0.498-0.541,1.092-0.971,1.782-1.287c0.689-0.315,1.452-0.473,2.288-0.473c1.408,0,2.574,0.492,3.498,1.474V8.59z M110.627,14.2
			c0,0.367,0.066,0.708,0.198,1.023c0.132,0.316,0.312,0.591,0.539,0.825c0.227,0.235,0.498,0.419,0.814,0.55
			c0.315,0.132,0.656,0.199,1.023,0.199c0.352,0,0.685-0.067,1.001-0.199c0.315-0.131,0.587-0.315,0.814-0.55
			c0.227-0.234,0.41-0.506,0.55-0.813c0.14-0.308,0.209-0.638,0.209-0.99s-0.069-0.685-0.209-1.001
			c-0.14-0.315-0.323-0.59-0.55-0.825c-0.227-0.234-0.498-0.418-0.814-0.55c-0.316-0.132-0.649-0.198-1.001-0.198
			c-0.367,0-0.708,0.066-1.023,0.198c-0.315,0.132-0.587,0.316-0.814,0.55c-0.228,0.235-0.407,0.503-0.539,0.804
			C110.693,13.522,110.627,13.848,110.627,14.2z"/>
		<path fill="#FFFFFF" d="M122.353,8.59h3.982v1.43c0.542-0.66,1.092-1.103,1.65-1.331c0.558-0.228,1.21-0.342,1.958-0.342
			c0.792,0,1.47,0.129,2.035,0.386c0.564,0.257,1.045,0.62,1.441,1.089c0.323,0.381,0.542,0.807,0.66,1.275
			c0.117,0.471,0.176,1.005,0.176,1.607v7.171h-3.982v-5.698c0-0.558-0.04-1.009-0.121-1.354c-0.081-0.344-0.224-0.619-0.429-0.825
			c-0.176-0.176-0.374-0.301-0.594-0.374c-0.22-0.073-0.455-0.11-0.704-0.11c-0.675,0-1.191,0.201-1.551,0.605
			c-0.36,0.403-0.539,0.979-0.539,1.726v6.029h-3.982V8.59z"/>
		<path fill="#FFFFFF" d="M140.547,14.905c0,1.716,0.806,2.574,2.42,2.574c0.865,0,1.518-0.352,1.958-1.056h3.85
			c-0.778,2.581-2.721,3.871-5.83,3.871c-0.954,0-1.826-0.143-2.618-0.429c-0.792-0.286-1.471-0.693-2.035-1.221
			c-0.565-0.527-1.001-1.158-1.309-1.892c-0.308-0.734-0.462-1.554-0.462-2.464c0-0.939,0.147-1.785,0.44-2.541
			c0.293-0.755,0.711-1.398,1.254-1.925c0.542-0.529,1.199-0.936,1.969-1.221c0.77-0.286,1.639-0.429,2.607-0.429
			c0.953,0,1.811,0.143,2.574,0.429c0.763,0.286,1.408,0.7,1.936,1.243c0.528,0.542,0.931,1.206,1.21,1.992
			c0.278,0.784,0.418,1.668,0.418,2.65v0.419H140.547z M145.211,12.594c-0.132-0.558-0.404-1.004-0.814-1.342
			c-0.411-0.337-0.909-0.506-1.496-0.506c-0.616,0-1.119,0.161-1.507,0.483c-0.389,0.323-0.634,0.778-0.737,1.364H145.211z"/>
	</g>
	<g>
		<polygon fill="#FFFFFF" points="14,26.92 0,20.736 0,0 14,6.184 		"/>
		<polygon opacity="0.5" fill="#FFFFFF" points="28,20.736 14,26.92 14,6.184 28,0 		"/>
	</g>
</g>
</svg>
