<?xml version="1.0" encoding="utf-8"?>
<!-- Generator: Adobe Illustrator 17.0.0, SVG Export Plug-In . SVG Version: 6.00 Build 0)  -->
<!DOCTYPE svg PUBLIC "-//W3C//DTD SVG 1.1//EN" "http://www.w3.org/Graphics/SVG/1.1/DTD/svg11.dtd">
<svg version="1.1" id="Layer_1" xmlns="http://www.w3.org/2000/svg" xmlns:xlink="http://www.w3.org/1999/xlink" x="0px" y="0px"
	 width="1920px" height="718.811px" viewBox="0 0 1920 718.811" enable-background="new 0 0 1920 718.811" xml:space="preserve">
<g opacity="0.3">
	<linearGradient id="SVGID_1_" gradientUnits="userSpaceOnUse" x1="234.3607" y1="579.1439" x2="417.0431" y2="579.1439">
		<stop  offset="0" style="stop-color:#4AA17C"/>
		<stop  offset="1" style="stop-color:#19277A"/>
	</linearGradient>
	<path fill-rule="evenodd" clip-rule="evenodd" fill="url(#SVGID_1_)" d="M261.067,514.51c9.855-9.857,21.404-16.985,33.71-21.4
		l-55.11,55.109C244.079,535.913,251.21,524.367,261.067,514.51L261.067,514.51z M309.918,489.106l-74.254,74.258
		c-0.719,4.117-1.152,8.273-1.304,12.437l87.999-87.999C318.196,487.955,314.038,488.387,309.918,489.106L309.918,489.106z
		 M333.252,488.054l-98.643,98.639c0.27,3.286,0.715,6.56,1.337,9.8l107.106-107.104
		C339.808,488.767,336.535,488.324,333.252,488.054L333.252,488.054z M351.998,491.583L238.141,605.438
		c0.833,2.784,1.799,5.531,2.9,8.241l119.194-119.192C357.527,493.382,354.779,492.418,351.998,491.583L351.998,491.583z
		 M367.85,498.01L244.568,621.29c1.247,2.398,2.609,4.757,4.084,7.058l126.252-126.254
		C372.603,500.619,370.249,499.257,367.85,498.01L367.85,498.01z M381.447,506.69L253.248,634.892
		c1.599,2.069,3.297,4.084,5.098,6.039l129.144-129.142C385.531,509.991,383.517,508.289,381.447,506.69L381.447,506.69z
		 M393.057,517.357L263.913,646.502c1.96,1.797,3.974,3.499,6.043,5.094l128.199-128.197
		C396.559,521.329,394.857,519.317,393.057,517.357L393.057,517.357z M402.754,529.942L276.499,656.194
		c2.301,1.477,4.653,2.839,7.054,4.084l123.282-123.28C405.589,534.599,404.227,532.243,402.754,529.942L402.754,529.942z
		 M410.361,544.612L291.168,663.801c2.706,1.103,5.457,2.069,8.237,2.907l113.856-113.86
		C412.43,550.069,411.462,547.317,410.361,544.612L410.361,544.612z M415.457,561.795c0.622,3.244,1.067,6.518,1.335,9.798
		l-98.639,98.643c-3.284-0.272-6.558-0.713-9.802-1.339L415.457,561.795L415.457,561.795z M417.043,582.484
		c-0.152,4.168-0.585,8.326-1.304,12.443l-74.256,74.256c-4.117,0.719-8.273,1.148-12.441,1.301L417.043,582.484L417.043,582.484z
		 M411.736,610.071c-4.413,12.306-11.54,23.853-21.397,33.71c-9.857,9.857-21.408,16.989-33.712,21.4L411.736,610.071z"/>
	<linearGradient id="SVGID_2_" gradientUnits="userSpaceOnUse" x1="1503.1882" y1="386.7101" x2="1642.1737" y2="774.6446">
		<stop  offset="0" style="stop-color:#4AA17C"/>
		<stop  offset="1" style="stop-color:#19277A"/>
	</linearGradient>
	<path fill-rule="evenodd" clip-rule="evenodd" fill="url(#SVGID_2_)" d="M1200.292,718.811
		c21.558-59.556,87.666-130.539,284.708-105c266.627,34.564,271.215-186.817,435-241.243v346.243H1200.292z"/>
	<linearGradient id="SVGID_3_" gradientUnits="userSpaceOnUse" x1="1578.2423" y1="403.0528" x2="1852.6377" y2="5.6961">
		<stop  offset="0" style="stop-color:#4AA17C"/>
		<stop  offset="1" style="stop-color:#19277A"/>
	</linearGradient>
	<path fill-rule="evenodd" clip-rule="evenodd" fill="url(#SVGID_3_)" d="M1920,360.091C1863.123,82.7,1566.254,194.913,1544.48,0
		H1920V360.091z"/>
	<linearGradient id="SVGID_4_" gradientUnits="userSpaceOnUse" x1="551.9071" y1="237.2281" x2="-32.9477" y2="237.2322">
		<stop  offset="0" style="stop-color:#4AA17C"/>
		<stop  offset="1" style="stop-color:#19277A"/>
	</linearGradient>
	<path fill-rule="evenodd" clip-rule="evenodd" fill="url(#SVGID_4_)" d="M0,474.464c103.511,0,159.808-91.475,112.757-247.242
		C81.713,124.443,71.063,56.968,102.63,0H0V474.464z"/>
	<linearGradient id="SVGID_5_" gradientUnits="userSpaceOnUse" x1="556.78" y1="51.6172" x2="540.5215" y2="309.6788">
		<stop  offset="0" style="stop-color:#4AA17C"/>
		<stop  offset="1" style="stop-color:#19277A"/>
	</linearGradient>
	<path fill-rule="evenodd" clip-rule="evenodd" fill="url(#SVGID_5_)" d="M599.361,74.36c-20.699,0-38.73,11.397-48.172,28.255
		h-0.002c-12.817,20.526-28.595,27.994-45.837,7.592h-0.004c-5.748-7.36-14.709-12.091-24.772-12.091
		c-17.352,0-31.419,14.067-31.419,31.421c0,17.352,14.067,31.423,31.419,31.423c10.064,0,19.024-4.733,24.772-12.095h0.004
		c17.242-20.4,33.02-12.933,45.837,7.596l0.002-0.002c9.442,16.858,27.472,28.257,48.172,28.257
		c30.474,0,55.179-24.707,55.179-55.179S629.835,74.36,599.361,74.36z"/>
	<linearGradient id="SVGID_6_" gradientUnits="userSpaceOnUse" x1="1444.6508" y1="308.3591" x2="1456.4973" y2="595.2578">
		<stop  offset="0" style="stop-color:#4AA17C"/>
		<stop  offset="1" style="stop-color:#19277A"/>
	</linearGradient>
	<path fill-rule="evenodd" clip-rule="evenodd" fill="url(#SVGID_6_)" d="M1450.709,509.318c29.845,0,54.188-24.34,54.188-54.186
		c0-29.843-24.342-54.186-54.188-54.186c-29.846,0-54.184,24.342-54.184,54.186C1396.526,484.978,1420.864,509.318,1450.709,509.318
		z"/>
</g>
</svg>
