<?xml version="1.0" encoding="utf-8"?>
<!-- Generator: Adobe Illustrator 17.0.0, SVG Export Plug-In . SVG Version: 6.00 Build 0)  -->
<!DOCTYPE svg PUBLIC "-//W3C//DTD SVG 1.1//EN" "http://www.w3.org/Graphics/SVG/1.1/DTD/svg11.dtd">
<svg version="1.1" id="Layer_1" xmlns="http://www.w3.org/2000/svg" xmlns:xlink="http://www.w3.org/1999/xlink" x="0px" y="0px"
	 width="18.03px" height="21.952px" viewBox="0 0 18.03 21.952" enable-background="new 0 0 18.03 21.952" xml:space="preserve">
<g>
	<path fill="#706FF7" d="M9.819,1.608c3.339,0.433,5.936,3.277,5.936,6.74c0,1.608,0.062,3.092,0.433,4.7
		c0.371,1.793,1.051,3.339,1.793,5.009c0.186,0.495-0.186,1.051-0.742,1.051h-4.452c-0.495,1.67-1.979,2.844-3.772,2.844
		s-3.339-1.175-3.772-2.844H0.791c-0.618,0-0.989-0.618-0.68-1.175c0.742-1.608,1.36-3.092,1.731-4.885
		c0.371-1.608,0.371-3.092,0.371-4.7c0-3.463,2.659-6.307,5.998-6.74V0.804C8.212,0.371,8.583,0,9.016,0
		c0.433,0,0.804,0.371,0.804,0.804V1.608z M11.118,19.108H6.913c0.371,0.804,1.175,1.299,2.102,1.299
		C9.943,20.406,10.685,19.911,11.118,19.108z M9.016,3.154c-2.844,0-5.194,2.35-5.194,5.194c0,1.731-0.062,3.277-0.433,5.009
		c-0.309,1.484-0.804,2.844-1.422,4.205h14.099c-0.618-1.36-1.113-2.721-1.422-4.205c-0.371-1.731-0.433-3.277-0.433-5.009
		C14.21,5.503,11.86,3.154,9.016,3.154z"/>
</g>
</svg>
