<?xml version="1.0" encoding="utf-8"?>
<!-- Generator: Adobe Illustrator 17.0.0, SVG Export Plug-In . SVG Version: 6.00 Build 0)  -->
<!DOCTYPE svg PUBLIC "-//W3C//DTD SVG 1.1//EN" "http://www.w3.org/Graphics/SVG/1.1/DTD/svg11.dtd">
<svg version="1.1" id="Layer_1" xmlns="http://www.w3.org/2000/svg" xmlns:xlink="http://www.w3.org/1999/xlink" x="0px" y="0px"
	 width="18.289px" height="18.289px" viewBox="0 0 18.289 18.289" enable-background="new 0 0 18.289 18.289" xml:space="preserve">
<path fill="#FFFFFF" d="M2.908,3.963c0-0.281,0.227-0.508,0.508-0.508h7.595c0.281,0,0.508,0.227,0.508,0.508
	s-0.227,0.508-0.508,0.508H3.416C3.136,4.471,2.908,4.243,2.908,3.963z M3.416,7.925h7.595c0.281,0,0.508-0.227,0.508-0.508
	s-0.227-0.508-0.508-0.508H3.416c-0.281,0-0.508,0.227-0.508,0.508S3.136,7.925,3.416,7.925z M11.179,10.392
	c-0.054-0.019-0.11-0.029-0.167-0.028H3.416c-0.281,0-0.508,0.227-0.508,0.508c0,0.281,0.227,0.508,0.508,0.508h7.194L11.179,10.392
	z M3.056,13.967c-0.198,0.199-0.198,0.521,0.001,0.719c0.095,0.095,0.224,0.148,0.358,0.148h6.218v-1.016H3.416
	C3.281,13.819,3.152,13.872,3.056,13.967z M1.309,18.289h11.811c0.722-0.001,1.308-0.586,1.309-1.309v-2.64l-0.408,0.707
	c-0.147,0.257-0.356,0.472-0.608,0.628v1.305c-0.001,0.161-0.131,0.292-0.293,0.293H1.309c-0.161-0.001-0.292-0.131-0.293-0.293
	V1.309c0.001-0.161,0.131-0.292,0.293-0.293h11.811c0.161,0.001,0.292,0.131,0.293,0.293v5.219l1.016-1.76V1.309
	C14.427,0.586,13.842,0.001,13.119,0H1.309C0.586,0.001,0.001,0.586,0,1.309V16.98C0.001,17.703,0.586,18.288,1.309,18.289z
	 M11.194,15.549l1.559-0.899c0.088-0.051,0.16-0.123,0.211-0.211l5.27-9.128c0.115-0.2,0.047-0.455-0.153-0.57L16.77,3.984
	c-0.2-0.115-0.455-0.047-0.57,0.153l0,0l-5.27,9.128c-0.051,0.088-0.077,0.187-0.077,0.288l0,1.799c0,0.125,0.102,0.227,0.227,0.227
	C11.12,15.58,11.159,15.569,11.194,15.549z"/>
</svg>
