<?xml version="1.0" encoding="utf-8"?>
<!-- Generator: Adobe Illustrator 17.0.0, SVG Export Plug-In . SVG Version: 6.00 Build 0)  -->
<!DOCTYPE svg PUBLIC "-//W3C//DTD SVG 1.1//EN" "http://www.w3.org/Graphics/SVG/1.1/DTD/svg11.dtd">
<svg version="1.1" id="Layer_1" xmlns="http://www.w3.org/2000/svg" xmlns:xlink="http://www.w3.org/1999/xlink" x="0px" y="0px"
	 width="22px" height="22px" viewBox="0 0 22 22" enable-background="new 0 0 22 22" xml:space="preserve">
<path d="M21.678,20.122l-4.992-4.993c1.257-1.593,2.015-3.598,2.015-5.78C18.7,4.194,14.505,0,9.35,0S0,4.194,0,9.35
	s4.195,9.35,9.35,9.35c2.182,0,4.187-0.757,5.78-2.015l4.992,4.993C20.337,21.893,20.619,22,20.9,22
	c0.281,0,0.563-0.107,0.778-0.322C22.107,21.248,22.107,20.552,21.678,20.122z M2.2,9.35c0-3.942,3.208-7.15,7.15-7.15
	s7.15,3.208,7.15,7.15c0,1.968-0.8,3.753-2.092,5.048c-0.002,0.002-0.004,0.002-0.006,0.004s-0.002,0.004-0.004,0.006
	C13.103,15.7,11.319,16.5,9.35,16.5C5.408,16.5,2.2,13.292,2.2,9.35z"/>
</svg>
