<?xml version="1.0" encoding="utf-8"?>
<!-- Generator: Adobe Illustrator 17.0.0, SVG Export Plug-In . SVG Version: 6.00 Build 0)  -->
<!DOCTYPE svg PUBLIC "-//W3C//DTD SVG 1.1//EN" "http://www.w3.org/Graphics/SVG/1.1/DTD/svg11.dtd">
<svg version="1.1" id="Layer_1" xmlns="http://www.w3.org/2000/svg" xmlns:xlink="http://www.w3.org/1999/xlink" x="0px" y="0px"
	 width="15.094px" height="15.094px" viewBox="0 0 15.094 15.094" enable-background="new 0 0 15.094 15.094" xml:space="preserve">
<g>
	<circle fill="#FACF33" cx="7.547" cy="7.547" r="7.547"/>
	<g>
		<g>
			<path fill="#0A0A0A" d="M10.784,8.956l0.011,0.034c-0.038,0.978-0.328,1.724-0.868,2.239c-0.54,0.515-1.324,0.773-2.351,0.773
				c-1.031,0-1.869-0.317-2.515-0.951c-0.645-0.634-0.968-1.457-0.968-2.469V6.842c0-1.008,0.31-1.83,0.931-2.465
				c0.62-0.636,1.427-0.954,2.42-0.954c1.054,0,1.86,0.265,2.418,0.796c0.557,0.531,0.872,1.285,0.945,2.262l-0.011,0.034H8.91
				C8.884,5.973,8.763,5.571,8.547,5.307C8.331,5.044,7.964,4.912,7.444,4.912c-0.439,0-0.784,0.177-1.036,0.53
				C6.156,5.795,6.03,6.258,6.03,6.831v1.753c0,0.577,0.137,1.042,0.412,1.398c0.275,0.355,0.653,0.533,1.134,0.533
				c0.466,0,0.797-0.124,0.99-0.372C8.762,9.893,8.872,9.498,8.9,8.956H10.784z"/>
		</g>
	</g>
</g>
</svg>
